<?xml version="1.0" standalone="no"?>
<!DOCTYPE svg PUBLIC "-//W3C//DTD SVG 20010904//EN"
 "http://www.w3.org/TR/2001/REC-SVG-20010904/DTD/svg10.dtd">
<svg version="1.0" xmlns="http://www.w3.org/2000/svg"
 width="340.000000pt" height="340.000000pt" viewBox="0 0 340.000000 340.000000"
 preserveAspectRatio="xMidYMid meet">
<metadata>
Created by potrace 1.11, written by Peter Selinger 2001-2013
</metadata>
<g transform="translate(0.000000,340.000000) scale(0.100000,-0.100000)"
fill="#000000" stroke="none">
<path d="M20 3260 c-20 -20 -20 -33 -20 -1560 0 -1527 0 -1540 20 -1560 20
-20 33 -20 1680 -20 1647 0 1660 0 1680 20 20 20 20 33 20 1560 0 1527 0 1540
-20 1560 -20 20 -33 20 -1680 20 -1647 0 -1660 0 -1680 -20z m3150 -1560 l0
-1350 -1470 0 -1470 0 0 1350 0 1350 1470 0 1470 0 0 -1350z"/>
<path d="M517 2683 c-2 -5 -3 -453 -3 -998 l1 -990 155 0 155 0 0 306 0 305
50 61 c28 33 64 78 81 99 18 22 66 81 107 132 l76 92 29 -52 c26 -47 414 -759
488 -896 l28 -52 612 0 c481 0 613 3 616 13 3 10 2 1935 -1 1975 -1 9 -38 12
-151 12 l-150 0 0 -430 0 -430 -403 0 -403 0 0 -130 -1 -130 404 0 403 0 0
-310 0 -310 -47 -1 c-275 -3 -677 1 -683 7 -9 9 -539 940 -546 959 -2 6 9 24
24 41 15 18 61 73 102 125 41 51 101 124 133 163 32 39 63 78 70 86 28 36 102
125 107 130 3 3 21 25 40 50 19 25 37 47 40 50 10 10 87 105 94 118 6 9 -30
12 -163 12 l-170 0 -128 -157 c-110 -135 -449 -552 -606 -746 -26 -32 -48 -56
-48 -55 -1 2 -3 214 -4 473 -1 259 -3 473 -4 478 0 4 -68 7 -150 7 -83 0 -152
-3 -154 -7z"/>
</g>
</svg>
